<svg width="16" height="16" viewBox="0 0 16 16" fill="none" xmlns="http://www.w3.org/2000/svg">
<g clip-path="url(#clip0)">
<path d="M11.3662 8.6228H9.19215C8.59714 8.6228 8.11328 9.10666 8.11328 9.70168V11.369C8.11328 11.964 8.59714 12.4479 9.19215 12.4479H11.3662C11.9612 12.4479 12.4451 11.964 12.4451 11.369V9.70168C12.4451 9.10666 11.9612 8.6228 11.3662 8.6228ZM11.6605 11.369C11.6605 11.5325 11.5264 11.6633 11.3662 11.6633H9.19215C9.02868 11.6633 8.89791 11.5292 8.89791 11.369V9.70168C8.89791 9.53821 9.03195 9.40744 9.19215 9.40744H11.3662C11.5297 9.40744 11.6605 9.54148 11.6605 9.70168V11.369Z" fill="white"/>
<path d="M16 5.59205C16 5.52339 15.9837 5.45801 15.9477 5.39916L13.5676 1.21444C13.499 1.09348 13.3682 1.01501 13.2276 1.01501H2.76911C2.62852 1.01501 2.49775 1.09021 2.4291 1.21444L0.052309 5.39916C0.0196159 5.45801 0 5.52339 0 5.59205C0 6.53034 0.565591 7.33459 1.37311 7.69094V14.5925C1.37311 14.8082 1.54965 14.9848 1.76543 14.9848H3.93298C3.93625 14.9848 3.93952 14.9848 3.94279 14.9848H6.98325C6.98651 14.9848 6.98978 14.9848 6.99305 14.9848H14.2313C14.4471 14.9848 14.6236 14.8082 14.6236 14.5925V7.73998C14.6236 7.72364 14.6236 7.71056 14.6204 7.69748C15.4311 7.34113 16 6.53361 16 5.59205ZM2.99796 1.80292H12.9988L14.859 5.0755H1.14099L2.99796 1.80292ZM11.387 5.85686C11.2628 6.56303 10.6449 7.0992 9.90274 7.0992C9.16061 7.0992 8.54271 6.56303 8.41847 5.85686H11.387ZM7.5848 5.85686C7.46056 6.56303 6.84267 7.0992 6.10053 7.0992C5.3584 7.0992 4.7405 6.56303 4.613 5.85686H7.5848ZM0.810789 5.85686H3.78259C3.65836 6.56303 3.03719 7.0992 2.29506 7.0992C1.55292 7.10247 0.935023 6.56303 0.810789 5.85686ZM6.59093 14.2001H4.3351V9.96638C4.3351 9.65907 4.58357 9.40733 4.89416 9.40733H6.03515C6.34246 9.40733 6.5942 9.6558 6.5942 9.96638V14.2001H6.59093ZM13.839 14.2001H7.37556V9.96638C7.37556 9.22752 6.77401 8.6227 6.03188 8.6227H4.89089C4.15202 8.6227 3.5472 9.22425 3.5472 9.96638V14.2034H2.15774V7.88383C2.20351 7.8871 2.24928 7.8871 2.29506 7.8871C3.08623 7.8871 3.78586 7.48498 4.19779 6.87362C4.60973 7.48498 5.30936 7.8871 6.10053 7.8871C6.8917 7.8871 7.58807 7.48498 8.00327 6.87362C8.4152 7.48498 9.11483 7.8871 9.90274 7.8871C10.6939 7.8871 11.3903 7.48498 11.8022 6.87362C12.2141 7.48498 12.9138 7.8871 13.7049 7.8871C13.7507 7.8871 13.7932 7.88383 13.839 7.88383V14.2001ZM13.7049 7.10247C12.9628 7.10247 12.3449 6.5663 12.2207 5.86013H15.1925C15.065 6.56303 14.4471 7.10247 13.7049 7.10247Z" fill="white"/>
</g>
<defs>
<clipPath id="clip0">
<rect width="16" height="16" fill="white"/>
</clipPath>
</defs>
</svg>
