<svg width="16" height="16" viewBox="0 0 16 16" fill="none" xmlns="http://www.w3.org/2000/svg">
<g clip-path="url(#clip0)">
<path d="M12.7381 16C12.6828 16 12.6268 15.986 12.5768 15.9587L8.00012 13.4287L3.42278 15.9587C3.31145 16.0207 3.17345 16.0127 3.06945 15.9394C2.96545 15.866 2.91212 15.7394 2.93212 15.6134L3.81012 10.232L0.0947837 6.42272C0.00745038 6.33338 -0.0225496 6.20272 0.0174504 6.08405C0.0574504 5.96538 0.15945 5.87938 0.282784 5.86072L5.40478 5.07805L7.69812 0.191381C7.80812 -0.0432858 8.19145 -0.0432858 8.30145 0.191381L10.5948 5.07805L15.7168 5.86072C15.8401 5.87938 15.9428 5.96605 15.9821 6.08405C16.0214 6.20205 15.9921 6.33338 15.9048 6.42272L12.1888 10.2314L13.0668 15.6127C13.0875 15.7387 13.0341 15.8654 12.9294 15.9387C12.8734 15.9794 12.8054 16 12.7381 16ZM8.00012 12.714C8.05545 12.714 8.11145 12.728 8.16145 12.7554L12.2994 15.0427L11.5048 10.1727C11.4881 10.068 11.5214 9.96205 11.5954 9.88605L14.9754 6.42138L10.3194 5.71005C10.2094 5.69338 10.1154 5.62271 10.0681 5.52205L8.00012 1.11805L5.93278 5.52272C5.88545 5.62338 5.79145 5.69405 5.68145 5.71005L1.02545 6.42138L4.40545 9.88605C4.47945 9.96205 4.51278 10.068 4.49612 10.1727L3.70145 15.0427L7.83945 12.7554C7.88878 12.728 7.94478 12.714 8.00012 12.714Z" fill="#666666"/>
</g>
<defs>
<clipPath id="clip0">
<rect width="16" height="16" fill="white"/>
</clipPath>
</defs>
</svg>
