<svg width="16" height="16" viewBox="0 0 16 16" fill="none" xmlns="http://www.w3.org/2000/svg">
<path d="M11.4633 1.37714C10.1286 1.37001 8.85973 1.95619 7.99998 2.97712C7.14562 1.94921 5.87325 1.36136 4.53668 1.37714C2.03113 1.37714 0 3.40827 0 5.91382C0 10.2075 7.49366 14.3999 7.79747 14.5619C7.92005 14.6438 8.07992 14.6438 8.20253 14.5619C8.50634 14.3999 16 10.2683 16 5.91382C16 3.40827 13.9688 1.37714 11.4633 1.37714ZM7.99998 13.7518C6.8253 13.0632 0.810128 9.3974 0.810128 5.91382C0.810128 3.85571 2.47857 2.18723 4.53672 2.18723C5.79708 2.17068 6.97656 2.8064 7.6557 3.86823C7.79359 4.05838 8.05956 4.10075 8.24971 3.96282C8.28603 3.93646 8.31798 3.90455 8.3443 3.86823C9.47064 2.14567 11.7802 1.66234 13.5027 2.78868C14.5572 3.47821 15.1919 4.65386 15.1898 5.91379C15.1899 9.43787 9.17466 13.0834 7.99998 13.7518Z" fill="#666666"/>
</svg>
