<svg width="16" height="16" viewBox="0 0 16 16" fill="none" xmlns="http://www.w3.org/2000/svg">
<path d="M6.21081 15.5676C6.13302 15.5678 6.05554 15.5578 5.98033 15.538C5.56281 15.4264 5.30617 15.037 5.05795 14.6604C4.9237 14.415 4.74054 14.1997 4.51979 14.0279C4.25654 13.9195 3.97372 13.8667 3.68908 13.8727C3.24303 13.8454 2.78249 13.8162 2.48281 13.5172C2.18314 13.2182 2.1546 12.7568 2.12714 12.311C2.13288 12.0266 2.07996 11.7441 1.97168 11.4811C1.79993 11.2602 1.58459 11.0769 1.33903 10.9427C0.962382 10.6945 0.572976 10.4379 0.461625 10.0204C0.353517 9.61992 0.557841 9.21192 0.754382 8.81711C0.905518 8.56761 1.00295 8.28932 1.04044 8.00003C1.00279 7.71105 0.905371 7.43308 0.754382 7.18382C0.557841 6.78922 0.354598 6.38101 0.461625 5.98057C0.572976 5.56306 0.962598 5.30641 1.33903 5.0582C1.58457 4.92407 1.79991 4.74089 1.97168 4.52003C2.07999 4.25675 2.13284 3.97396 2.12692 3.68933C2.1546 3.24371 2.18292 2.78295 2.4826 2.48306C2.78227 2.18317 3.24303 2.15484 3.68887 2.12738C3.97322 2.13312 4.25571 2.0802 4.51871 1.97193C4.73973 1.80055 4.92325 1.58568 5.05795 1.34057C5.30617 0.963925 5.56281 0.57452 5.98033 0.462952C6.37946 0.35679 6.78876 0.559168 7.18379 0.755709C7.43305 0.906325 7.71095 1.00338 7.99979 1.04068C8.2887 1.00305 8.56661 0.905624 8.81579 0.754628C9.21081 0.558087 9.62011 0.355709 10.0192 0.461871C10.4368 0.573439 10.6934 0.962844 10.9416 1.33949C11.0762 1.58499 11.2597 1.80024 11.4809 1.97193C11.7441 2.08034 12.0269 2.13319 12.3116 2.12717C12.7572 2.15463 13.2182 2.18317 13.5178 2.48284C13.8175 2.78252 13.845 3.24328 13.8724 3.68911C13.8667 3.97347 13.9196 4.25596 14.0279 4.51895C14.1996 4.73988 14.415 4.92314 14.6605 5.05733C15.0372 5.30555 15.4266 5.5622 15.5379 5.97971C15.645 6.38014 15.4417 6.78814 15.2452 7.18295C15.0941 7.43246 14.9966 7.71074 14.9591 8.00003C14.9968 8.28902 15.0942 8.56699 15.2452 8.81625C15.4417 9.21106 15.645 9.61906 15.5379 10.0195C15.4266 10.437 15.037 10.6937 14.6605 10.9419C14.4149 11.0763 14.1995 11.2599 14.0279 11.4811C13.9196 11.7444 13.8667 12.0272 13.8727 12.3118C13.845 12.7574 13.8167 13.2182 13.517 13.5181C13.2173 13.818 12.7565 13.8452 12.3107 13.8727C12.0261 13.8668 11.7433 13.9197 11.48 14.0281C11.2592 14.1999 11.0759 14.4152 10.9416 14.6606C10.6934 15.0372 10.4368 15.4266 10.0192 15.5382C9.62011 15.6446 9.21081 15.442 8.81579 15.2454C8.56661 15.0944 8.2887 14.997 7.99979 14.9594C7.71087 14.997 7.43297 15.0944 7.18379 15.2454C6.88755 15.4241 6.55511 15.5341 6.21081 15.5676ZM6.21081 0.864898C6.17049 0.864548 6.13029 0.869491 6.09125 0.879601C5.83179 0.94879 5.62206 1.26879 5.41795 1.57733C5.25118 1.88165 5.01793 2.14446 4.73557 2.3462C4.41568 2.49285 4.06687 2.56557 3.71503 2.55895C3.33276 2.58252 2.97189 2.60479 2.78768 2.78879C2.60346 2.97279 2.58141 3.33387 2.55784 3.71614C2.56453 4.06797 2.49189 4.41678 2.3453 4.73668C2.144 5.0188 1.88182 5.25201 1.57817 5.41906C1.26898 5.62295 0.949625 5.83355 0.880219 6.09214C0.815355 6.33452 0.97449 6.6543 1.14249 6.99095C1.32725 7.29812 1.44019 7.64307 1.47287 8.00003C1.43986 8.35708 1.32655 8.70204 1.14141 9.00911C0.97276 9.34684 0.814706 9.6649 0.879138 9.90792C0.948544 10.1674 1.26833 10.3771 1.57708 10.581C1.88137 10.7479 2.14416 10.9812 2.34595 11.2636C2.4926 11.5835 2.56532 11.9323 2.55871 12.2841C2.58227 12.6664 2.60454 13.0273 2.78854 13.2115C2.97254 13.3957 3.33362 13.4178 3.71589 13.4413C4.06773 13.4345 4.41657 13.5072 4.73644 13.6539C5.01875 13.8557 5.25198 14.1185 5.41881 14.4227C5.62271 14.7317 5.8333 15.0513 6.0919 15.1205C6.33427 15.1853 6.65406 15.0266 6.99092 14.8584C7.29791 14.6733 7.64281 14.5599 7.99979 14.527C8.35677 14.5599 8.70166 14.6733 9.00865 14.8584C9.34638 15.0266 9.66573 15.1853 9.90768 15.1205C10.1671 15.0513 10.3769 14.7313 10.581 14.4227C10.7477 14.1184 10.981 13.8556 11.2634 13.6539C11.5832 13.5072 11.9321 13.4345 12.2839 13.4411C12.6662 13.4175 13.027 13.3953 13.2112 13.2113C13.3955 13.0273 13.4175 12.6662 13.4411 12.2839C13.4344 11.9321 13.507 11.5833 13.6536 11.2634C13.8554 10.9811 14.1182 10.7478 14.4225 10.581C14.7317 10.3771 15.051 10.1665 15.1204 9.90792C15.1853 9.66555 15.0262 9.34576 14.8582 9.00911C14.673 8.70204 14.5597 8.35708 14.5267 8.00003C14.5597 7.64299 14.673 7.29803 14.8582 6.99095C15.0262 6.65322 15.1849 6.33452 15.1204 6.09214C15.051 5.83268 14.7312 5.62295 14.4225 5.41906C14.1182 5.25214 13.8554 5.01884 13.6536 4.73647C13.507 4.41658 13.4343 4.06777 13.4409 3.71593C13.4173 3.33366 13.395 2.97279 13.211 2.78857C13.027 2.60436 12.6659 2.5823 12.2837 2.55874C11.9318 2.56553 11.583 2.49288 11.2631 2.3462C10.9809 2.14471 10.7477 1.8823 10.5808 1.57841C10.3769 1.26944 10.1663 0.949871 9.90768 0.880682C9.66552 0.815817 9.3466 0.97452 9.00865 1.14274C8.70157 1.32751 8.35668 1.44046 7.99979 1.47311C7.64281 1.44013 7.29791 1.32681 6.99092 1.14166C6.75295 0.996669 6.48758 0.902445 6.21146 0.864898H6.21081Z" fill="#666666"/>
<path d="M9.72298 11.0337C9.51488 11.0338 9.31006 10.9819 9.12716 10.8827C8.94426 10.7834 8.78909 10.64 8.67578 10.4655C8.56247 10.2909 8.49462 10.0908 8.4784 9.88334C8.46219 9.67588 8.49813 9.46766 8.58295 9.27763C8.66777 9.08761 8.79877 8.92182 8.96403 8.79536C9.1293 8.6689 9.32357 8.58579 9.52915 8.5536C9.73474 8.5214 9.94512 8.54114 10.1411 8.61103C10.3371 8.68091 10.5126 8.79871 10.6514 8.95371C10.8124 9.133 10.918 9.35511 10.9554 9.59315C10.9928 9.8312 10.9605 10.075 10.8623 10.295C10.764 10.5151 10.6042 10.7019 10.402 10.833C10.1998 10.9641 9.96394 11.0338 9.72298 11.0337ZM9.72298 8.97165C9.53637 8.97183 9.35547 9.03605 9.21052 9.15358C9.06558 9.27111 8.96535 9.43482 8.92661 9.61736C8.88786 9.79991 8.91294 9.99022 8.99764 10.1565C9.08235 10.3228 9.22156 10.4549 9.39201 10.5309C9.56245 10.6069 9.75381 10.622 9.93409 10.5739C10.1144 10.5257 10.2727 10.4171 10.3825 10.2663C10.4924 10.1154 10.5471 9.93145 10.5376 9.74508C10.5281 9.55872 10.4549 9.38125 10.3303 9.24236C10.2539 9.15679 10.1601 9.08842 10.0553 9.04176C9.95041 8.9951 9.83687 8.9712 9.72211 8.97165H9.72298Z" fill="#666666"/>
<path d="M6.27767 7.46059C6.06958 7.46072 5.86475 7.4088 5.68185 7.30955C5.49895 7.2103 5.34378 7.06688 5.23046 6.89234C5.11715 6.7178 5.0493 6.51769 5.03309 6.31022C5.01688 6.10276 5.05282 5.89454 5.13764 5.70451C5.22246 5.51449 5.35346 5.3487 5.51872 5.22224C5.68399 5.09578 5.87826 5.01267 6.08385 4.98048C6.28944 4.94828 6.49982 4.96802 6.69583 5.03791C6.89184 5.10779 7.06726 5.22559 7.20611 5.38059C7.3671 5.55989 7.4727 5.78199 7.51012 6.02004C7.54754 6.25808 7.51518 6.50187 7.41696 6.72191C7.31874 6.94196 7.15887 7.12883 6.95668 7.25992C6.75449 7.39102 6.51864 7.46071 6.27767 7.46059ZM6.27767 5.39854C6.09107 5.39876 5.9102 5.46303 5.76529 5.58058C5.62037 5.69814 5.52019 5.86186 5.48148 6.0444C5.44277 6.22695 5.46788 6.41724 5.55261 6.5835C5.63735 6.74975 5.77657 6.88189 5.94701 6.95783C6.11746 7.03377 6.30881 7.04892 6.48908 7.00074C6.66936 6.95256 6.82764 6.84397 6.93747 6.69312C7.04731 6.54227 7.10204 6.3583 7.09254 6.17194C7.08303 5.98558 7.00986 5.80813 6.88524 5.66924C6.80862 5.5838 6.71481 5.51551 6.60995 5.46886C6.5051 5.42221 6.39157 5.39825 6.27681 5.39854H6.27767Z" fill="#666666"/>
<path d="M5.11897 11.0235C5.07594 11.0236 5.03386 11.0108 4.99812 10.9868C4.96239 10.9629 4.93461 10.9288 4.91836 10.8889C4.90211 10.8491 4.89811 10.8053 4.90689 10.7632C4.91566 10.721 4.93681 10.6825 4.96762 10.6525L10.7311 5.03774C10.7722 4.99759 10.8275 4.97542 10.885 4.97609C10.9424 4.97676 10.9972 5.00022 11.0374 5.0413C11.0775 5.08239 11.0997 5.13774 11.099 5.19518C11.0983 5.25261 11.0749 5.30743 11.0338 5.34757L5.26989 10.9621C5.22952 11.0014 5.17536 11.0235 5.11897 11.0235Z" fill="#666666"/>
</svg>
