<svg width="16" height="16" viewBox="0 0 16 16" fill="none" xmlns="http://www.w3.org/2000/svg">
<g clip-path="url(#clip0)">
<path d="M10.2824 1.97709C10.1216 0.850025 9.14059 0 8.00058 0C7.26742 0 6.57113 0.353787 6.13821 0.946715C6.04979 1.06764 6.07624 1.23726 6.19716 1.32569C6.31769 1.4138 6.48771 1.38766 6.57598 1.26658C6.90736 0.813161 7.43983 0.542398 8.0005 0.542398C8.87237 0.542398 9.62245 1.19213 9.74544 2.0536C9.76483 2.1889 9.8809 2.28654 10.0137 2.28654C10.0263 2.28654 10.0393 2.28559 10.0523 2.28384C10.2005 2.26263 10.3036 2.12526 10.2824 1.97709Z" fill="#666666"/>
<path d="M14.1976 5.01299L13.3841 3.65704C13.3351 3.57528 13.2469 3.52539 13.1515 3.52539H12.3719C12.2222 3.52539 12.1007 3.64687 12.1007 3.79655C12.1007 3.94623 12.2222 4.06771 12.3719 4.06771H12.998L13.4862 4.88127H2.5118L2.99993 4.06771H3.28714C3.43682 4.06771 3.5583 3.94623 3.5583 3.79655C3.5583 3.64687 3.43682 3.52539 3.28714 3.52539H2.84644C2.7511 3.52539 2.66283 3.57528 2.61389 3.65704L1.80033 5.01299C1.75004 5.09689 1.74885 5.20121 1.79692 5.28622C1.84498 5.37123 1.93508 5.42383 2.03288 5.42383H13.9651C14.0629 5.42383 14.1529 5.37123 14.2011 5.28622C14.2492 5.20121 14.2479 5.09673 14.1976 5.01299Z" fill="#666666"/>
<path d="M12.8465 2.51252C12.8085 2.45127 12.7479 2.40781 12.6778 2.39144L8.98095 1.5268C8.91096 1.51035 8.83723 1.52259 8.77606 1.56041C8.71504 1.59838 8.6715 1.659 8.65513 1.72908L8.37635 2.92081C8.34218 3.0666 8.43276 3.21247 8.57863 3.24647C8.72441 3.28064 8.87044 3.19007 8.90445 3.0442L9.1215 2.11663L12.2902 2.85781L11.7923 4.98665C11.7581 5.13244 11.8487 5.2783 11.9945 5.31231C12.0154 5.31715 12.0362 5.31946 12.0567 5.31946C12.1798 5.31946 12.2913 5.23508 12.3203 5.11011L12.88 2.71727C12.8965 2.64727 12.8844 2.57354 12.8465 2.51252Z" fill="#666666"/>
<path d="M8.14362 3.15342L7.89653 1.06351C7.88811 0.992089 7.85164 0.926861 7.79508 0.88237C7.73851 0.837878 7.66708 0.817539 7.59534 0.825961L3.0596 1.36208C2.91095 1.37972 2.80465 1.51447 2.82221 1.66327L3.23415 5.14894C3.25052 5.28694 3.36755 5.3884 3.50317 5.3884C3.51373 5.3884 3.52462 5.38769 3.53542 5.38649C3.68399 5.36886 3.79029 5.23411 3.77282 5.0853L3.39265 1.86873L7.38981 1.39633L7.60496 3.2169C7.62259 3.36563 7.7567 3.4713 7.90615 3.45445C8.0548 3.43697 8.1611 3.30215 8.14362 3.15342Z" fill="#666666"/>
<path d="M10.2876 5.04948L9.7493 2.81108C9.73246 2.74124 9.68852 2.68078 9.62727 2.64321C9.56601 2.60594 9.49252 2.59426 9.42221 2.61095L5.05355 3.66158C4.90792 3.69654 4.8183 3.84304 4.85326 3.98867L5.12228 5.10747C5.15723 5.25326 5.30374 5.34296 5.44929 5.30776C5.59492 5.27281 5.68454 5.1263 5.64958 4.98067L5.44389 4.12548L9.28524 3.20181L9.76011 5.17643C9.7899 5.30077 9.90113 5.38419 10.0236 5.38419C10.0446 5.38419 10.0659 5.38173 10.0873 5.37657C10.2329 5.34153 10.3225 5.19511 10.2876 5.04948Z" fill="#666666"/>
<path d="M14.2375 5.13873C14.23 4.99461 14.111 4.88147 13.9666 4.88147H2.03438C1.88994 4.88147 1.77093 4.99453 1.76346 5.13873L1.22106 15.715C1.21725 15.7892 1.2441 15.8618 1.29527 15.9157C1.34651 15.9695 1.41754 16 1.4919 16H14.5088C14.5831 16 14.6542 15.9695 14.7057 15.9157C14.7568 15.8618 14.7836 15.7893 14.7799 15.715L14.2375 5.13873ZM1.77728 15.4576L2.29187 5.42379H13.7088L14.2234 15.4576H1.77728Z" fill="#666666"/>
<path d="M10.0343 5.96606C9.58561 5.96606 9.2207 6.33097 9.2207 6.77962C9.2207 7.22827 9.58561 7.59318 10.0343 7.59318C10.4829 7.59318 10.8478 7.22827 10.8478 6.77962C10.8478 6.33097 10.4829 5.96606 10.0343 5.96606ZM10.0343 7.05086C9.88466 7.05086 9.7631 6.92922 9.7631 6.7797C9.7631 6.63018 9.88474 6.50854 10.0343 6.50854C10.1838 6.50854 10.3054 6.63018 10.3054 6.7797C10.3054 6.92922 10.1838 7.05086 10.0343 7.05086Z" fill="#666666"/>
<path d="M5.9659 5.96606C5.51725 5.96606 5.15234 6.33097 5.15234 6.77962C5.15234 7.22827 5.51725 7.59318 5.9659 7.59318C6.41455 7.59318 6.77946 7.22827 6.77946 6.77962C6.77946 6.33097 6.41455 5.96606 5.9659 5.96606ZM5.9659 7.05086C5.81638 7.05086 5.69474 6.92922 5.69474 6.7797C5.69474 6.63018 5.81638 6.50854 5.9659 6.50854C6.11542 6.50854 6.23706 6.63018 6.23706 6.7797C6.23706 6.92922 6.11542 7.05086 5.9659 7.05086Z" fill="#666666"/>
<path d="M10.0343 6.77954H10.0134C9.86368 6.77954 9.74221 6.90102 9.74221 7.0507C9.74221 7.08772 9.74952 7.12308 9.7631 7.15525V8.54219C9.7631 9.51409 8.97235 10.3049 8.00037 10.3049C7.02839 10.3049 6.23763 9.51417 6.23763 8.54219V7.05078C6.23763 6.9011 6.11615 6.77962 5.96647 6.77962C5.81679 6.77962 5.69531 6.9011 5.69531 7.05078V8.54227C5.69531 9.8133 6.72934 10.8473 8.00037 10.8473C9.27139 10.8473 10.3054 9.8133 10.3054 8.54227V7.05078C10.3054 6.9011 10.1839 6.77954 10.0343 6.77954Z" fill="#666666"/>
</g>
<defs>
<clipPath id="clip0">
<rect width="16" height="16" fill="white"/>
</clipPath>
</defs>
</svg>
