<svg width="150" height="150" viewBox="0 0 150 150" fill="none" xmlns="http://www.w3.org/2000/svg">
<g clip-path="url(#clip0)">
<path d="M134.578 29.4845L106.453 1.35945C105.569 0.482008 104.371 -0.00695646 103.125 7.47947e-05H28.125C20.3584 7.47947e-05 14.0625 6.29597 14.0625 14.0626V135.938C14.0625 143.704 20.3584 150 28.125 150H121.875C129.642 150 135.938 143.704 135.938 135.938V32.8126C135.945 31.5666 135.456 30.3692 134.578 29.4845ZM126.562 135.938C126.562 138.527 124.464 140.625 121.875 140.625H28.125C25.536 140.625 23.4375 138.527 23.4375 135.938V14.0626C23.4375 11.4736 25.536 9.37508 28.125 9.37508H98.4375V28.1251C98.4375 33.3027 102.635 37.5001 107.812 37.5001H126.562V135.938Z" fill="black"/>
<path d="M117.188 112.5H107.812V121.875H117.188V112.5Z" fill="black"/>
<path d="M117.188 65.625H32.8125V75H117.188V65.625Z" fill="black"/>
<path d="M117.188 89.0625H32.8125V98.4375H117.188V89.0625Z" fill="black"/>
<path d="M98.4375 112.5H32.8125V121.875H98.4375V112.5Z" fill="black"/>
</g>
<defs>
<clipPath id="clip0">
<rect width="150" height="150" fill="white"/>
</clipPath>
</defs>
</svg>
